<?xml version="1.0" standalone="no"?>
<svg viewBox="0 0 200 200" xmlns="http://www.w3.org/2000/svg">
  <path fill="#3B71CA" d="M26,-37C36.1,-39.3,48.2,-37,58.9,-30.1C69.7,-23.2,79.1,-11.6,75.2,-2.3C71.2,7,53.8,14,40.5,16.6C27.2,19.1,18,17.2,11.9,21.2C5.9,25.3,2.9,35.2,-1.7,38.2C-6.4,41.2,-12.7,37.1,-19.4,33.5C-26.1,29.8,-33.2,26.5,-34.2,21C-35.2,15.5,-30.3,7.7,-35.8,-3.2C-41.4,-14.2,-57.6,-28.4,-58.6,-37.5C-59.7,-46.6,-45.6,-50.6,-33.3,-47.1C-21,-43.5,-10.5,-32.3,-1.3,-30.1C8,-28,16,-34.8,26,-37Z" transform="translate(100 100)" />
</svg>
